<?xml version="1.0" standalone="no"?>
<!DOCTYPE svg PUBLIC "-//W3C//DTD SVG 20010904//EN"
 "http://www.w3.org/TR/2001/REC-SVG-20010904/DTD/svg10.dtd">
<svg version="1.0" xmlns="http://www.w3.org/2000/svg"
 width="32.000000pt" height="32.000000pt" viewBox="0 0 32.000000 32.000000"
 preserveAspectRatio="xMidYMid meet">

<g transform="translate(0.000000,32.000000) scale(0.100000,-0.100000)"
fill="#000000" stroke="none">
<path d="M12 308 c-17 -17 -17 -279 0 -296 17 -17 279 -17 296 0 17 17 17 279
0 296 -17 17 -279 17 -296 0z m86 -30 c17 -17 15 -47 -3 -54 -11 -5 -13 -10
-5 -19 6 -8 10 -46 8 -92 -3 -76 -4 -78 -28 -78 -24 0 -25 2 -28 79 -2 64 0
80 14 90 15 12 16 13 0 19 -29 11 -13 67 19 67 6 0 16 -5 23 -12z m76 -77 c4
-5 19 -4 37 2 28 11 33 10 55 -17 22 -24 25 -36 22 -90 -3 -58 -4 -61 -28 -61
-23 0 -25 4 -28 50 -6 94 -49 99 -54 7 -3 -53 -5 -57 -28 -57 -24 0 -25 3 -28
74 -2 41 -1 80 2 88 6 15 42 18 50 4z"/>
</g>
</svg>
