<?xml version="1.0" standalone="no"?>
<!DOCTYPE svg PUBLIC "-//W3C//DTD SVG 20010904//EN"
 "http://www.w3.org/TR/2001/REC-SVG-20010904/DTD/svg10.dtd">
<svg version="1.0" xmlns="http://www.w3.org/2000/svg"
 width="32.000000pt" height="32.000000pt" viewBox="0 0 32.000000 32.000000"
 preserveAspectRatio="xMidYMid meet">

<g transform="translate(0.000000,32.000000) scale(0.100000,-0.100000)"
fill="#000000" stroke="none">
<path d="M4 307 c-2 -7 -3 -78 -2 -157 l3 -145 155 0 155 0 0 155 0 155 -153
3 c-119 2 -154 0 -158 -11z m137 -88 c11 -6 24 -20 29 -32 8 -21 8 -21 19 6
23 59 76 0 55 -60 -14 -41 -40 -41 -58 -1 -12 27 -15 29 -15 11 -1 -24 -35
-53 -62 -53 -9 0 -28 9 -43 21 -35 28 -35 70 0 98 30 24 46 26 75 10z m139
-59 c0 -27 -4 -50 -10 -50 -5 0 -10 23 -10 50 0 28 5 50 10 50 6 0 10 -22 10
-50z"/>
</g>
</svg>
